HIERARCHY
ROOT Hips
{
	OFFSET 0.000000 88.474243 0.000000
	CHANNELS 6 Xposition Yposition Zposition Zrotation Yrotation Xrotation 
	JOINT Hips_Spine
	{
		OFFSET 0.000000 0.000000 0.000000
		CHANNELS 3 Zrotation Yrotation Xrotation
		JOINT Spine
		{
			OFFSET 0.005100 8.711998 -0.691000
			CHANNELS 3 Zrotation Yrotation Xrotation
			JOINT Spine1
			{
				OFFSET -0.009200 8.660301 -1.275000
				CHANNELS 3 Zrotation Yrotation Xrotation
				JOINT Spine2
				{
					OFFSET 0.006300 9.852501 -1.857000
					CHANNELS 3 Zrotation Yrotation Xrotation
					JOINT Spine2_Neck
					{
						OFFSET 0.000000 0.000000 0.000000
						CHANNELS 3 Zrotation Yrotation Xrotation
						JOINT Neck
						{
							OFFSET 0.016300 11.420799 -0.263300
							CHANNELS 3 Zrotation Yrotation Xrotation
							End Site #name: Head
							{
								OFFSET -0.019200 9.262405 2.362500
							}
						}
					}
					JOINT Spine2_LeftShoulder
					{
						OFFSET 0.000000 0.000000 0.000000
						CHANNELS 3 Zrotation Yrotation Xrotation
						JOINT LeftShoulder
						{
							OFFSET 5.616900 6.732201 -0.345700
							CHANNELS 3 Zrotation Yrotation Xrotation
							JOINT LeftArm
							{
								OFFSET 10.664888 -0.183372 -2.440700
								CHANNELS 3 Zrotation Yrotation Xrotation
								JOINT LeftForeArm
								{
									OFFSET 27.459126 0.000000 0.000000
									CHANNELS 3 Zrotation Yrotation Xrotation
									End Site #name: LeftHand
									{
										OFFSET 21.306858 0.000000 0.000000
									}
								}
							}
						}
					}
					JOINT Spine2_RightShoulder
					{
						OFFSET 0.000000 0.000000 0.000000
						CHANNELS 3 Zrotation Yrotation Xrotation
						JOINT RightShoulder
						{
							OFFSET -5.580300 6.737503 -0.344400
							CHANNELS 3 Zrotation Yrotation Xrotation
							JOINT RightArm
							{
								OFFSET -10.679335 -0.188484 -2.383900
								CHANNELS 3 Zrotation Yrotation Xrotation
								JOINT RightForeArm
								{
									OFFSET -27.503529 0.000000 0.000000
									CHANNELS 3 Zrotation Yrotation Xrotation
									End Site #name: RightHand
									{
										OFFSET -21.306808 0.000000 0.000000
									}
								}
							}
						}
					}
				}
			}
		}
	}
	JOINT Hips_LeftUpLeg
	{
		OFFSET 0.000000 0.000000 0.000000
		CHANNELS 3 Zrotation Yrotation Xrotation
		JOINT LeftUpLeg
		{
			OFFSET 6.857700 -6.739601 0.312100
			CHANNELS 3 Zrotation Yrotation Xrotation
			JOINT LeftLeg
			{
				OFFSET -0.367590 -34.731552 -4.572400
				CHANNELS 3 Zrotation Yrotation Xrotation
				End Site #name: LeftFoot
				{
					OFFSET 0.367590 -34.656704 -6.067400
				}
			}
		}
	}
	JOINT Hips_RightUpLeg
	{
		OFFSET 0.000000 0.000000 0.000000
		CHANNELS 3 Zrotation Yrotation Xrotation
		JOINT RightUpLeg
		{
			OFFSET -6.876100 -6.733299 0.301000
			CHANNELS 3 Zrotation Yrotation Xrotation
			JOINT RightLeg
			{
				OFFSET 0.347353 -34.795158 -4.515900
				CHANNELS 3 Zrotation Yrotation Xrotation
				End Site #name: RightFoot
				{
					OFFSET -0.347353 -34.589367 -6.070300
				}
			}
		}
	}
}
MOTION
Frames: 15
Frame Time: 0.041667
3.343061 0.254102 -3.976220 176.373144 4.780498 -178.092811 0.000000 -0.000000 0.000000 -3.213285 -0.199278 4.084898 0.234325 -1.962049 2.120835 0.000000 0.000000 0.000000 1.021949 -1.992867 2.541651 3.299505 -33.657360 -2.289595 -0.078250 -1.699594 -0.125572 0.453660 -3.932270 -0.467748 -84.594312 -24.167618 13.858307 2.333669 -16.995306 -0.633520 0.251739 -2.654221 0.763711 16.577447 16.557635 5.134579 55.351835 10.091603 9.568394 -4.677627 70.242953 -0.255472 0.000000 0.000000 0.000000 -2.939781 16.257524 -6.392395 -0.048823 -33.602524 -13.921716 0.000000 0.000000 -0.000000 -5.354253 -52.293591 -8.471193 -13.580989 -8.275432 20.796585 
3.403259 0.295673 -4.086184 176.391014 5.858727 -178.082529 0.000000 -0.000000 0.000000 -3.394444 -0.277567 4.225994 0.192034 -1.923631 2.050829 0.000000 0.000000 0.000000 0.976111 -1.976930 2.487938 3.040010 -32.668876 -2.439774 -0.107902 -1.675945 -0.130390 0.476092 -4.351141 -0.351048 -84.436025 -24.371944 14.075167 2.269234 -17.418729 -0.719118 0.224489 -2.619278 0.692884 16.305548 16.463958 5.139965 55.343906 9.887857 9.915948 -4.690626 69.421785 -0.248930 0.000000 0.000000 0.000000 -2.952783 15.969331 -6.596655 -0.152395 -33.451001 -13.551743 0.000000 0.000000 -0.000000 -5.225852 -51.465797 -8.370448 -13.005716 -7.538165 20.408167 
3.464774 0.339473 -4.190112 176.357567 6.758897 -178.067903 0.000000 -0.000000 0.000000 -3.587215 -0.327359 4.355350 0.148770 -1.878379 1.980136 0.000000 0.000000 0.000000 0.928290 -1.957579 2.429682 2.704596 -31.539092 -2.642427 -0.137181 -1.646426 -0.133163 0.514198 -4.807359 -0.208780 -84.318333 -24.553106 14.183707 2.200965 -17.939946 -0.799598 0.196960 -2.584094 0.612213 16.012769 16.370307 5.133193 55.350442 9.660302 10.290108 -4.722685 68.760901 -0.259934 0.000000 0.000000 0.000000 -2.967042 15.687960 -6.886909 -0.277362 -33.239287 -13.098907 0.000000 -0.000000 -0.000000 -5.118870 -50.661289 -8.277963 -12.444275 -6.836479 20.024811 
3.529046 0.384643 -4.288578 176.259115 7.528792 -178.057126 0.000000 -0.000000 0.000000 -3.781249 -0.332631 4.484809 0.105201 -1.825946 1.913356 0.000000 0.000000 0.000000 0.878922 -1.931818 2.365919 2.339955 -30.295553 -2.896837 -0.166227 -1.606153 -0.136857 0.553538 -5.271180 -0.050361 -84.219984 -24.681026 14.217167 2.116184 -18.622811 -0.897863 0.169495 -2.547576 0.555536 15.718759 16.299168 5.106768 55.355314 9.497773 10.615775 -4.765217 68.291928 -0.281784 0.000000 0.000000 0.000000 -2.984457 15.407245 -7.276128 -0.435119 -32.972642 -12.542146 0.000000 -0.000000 -0.000000 -5.033350 -49.950666 -8.184027 -11.988462 -6.202188 19.646583 
3.597257 0.429813 -4.383134 176.101575 8.124366 -178.037597 -0.000000 -0.000000 0.000000 -3.981591 -0.316256 4.607433 0.059860 -1.765160 1.852758 0.000000 0.000000 0.000000 0.833708 -1.900003 2.297137 1.991115 -28.988425 -3.228875 -0.192808 -1.558633 -0.137792 0.593189 -5.727467 0.116445 -84.101434 -24.774120 14.238048 2.047559 -19.531712 -0.999852 0.146409 -2.502103 0.503069 15.426752 16.323435 5.097609 55.341681 9.384332 10.810443 -4.805936 68.074593 -0.309338 0.000000 0.000000 0.000000 -3.004105 15.136770 -7.745759 -0.636109 -32.675543 -11.857704 0.000000 -0.000000 -0.000000 -4.973508 -49.432858 -8.070239 -11.591390 -5.540865 19.278034 
3.671339 0.472813 -4.475298 175.902868 8.583911 -178.001453 -0.000000 -0.000000 0.000000 -4.202981 -0.261284 4.739271 0.016849 -1.700877 1.792460 0.000000 0.000000 0.000000 0.796032 -1.861783 2.218074 1.653362 -27.692507 -3.694178 -0.214687 -1.502524 -0.143470 0.618748 -6.160551 0.288827 -83.923447 -24.847423 14.177509 2.008672 -20.691496 -1.102908 0.126042 -2.450365 0.445856 15.158514 16.476775 5.086323 55.301845 9.337171 10.868826 -4.877591 68.148468 -0.368860 0.000000 0.000000 0.000000 -3.033178 14.878794 -8.249007 -0.864896 -32.341897 -11.085046 0.000000 -0.000000 -0.000000 -4.945028 -49.197605 -7.924916 -11.197474 -4.717449 18.926262 
3.753088 0.512413 -4.566100 175.661041 8.820654 -177.946350 -0.000000 -0.000000 0.000000 -4.443192 -0.175316 4.860357 -0.023673 -1.636934 1.718878 0.000000 0.000000 0.000000 0.764896 -1.823318 2.143652 1.357078 -26.436894 -4.298422 -0.232806 -1.439429 -0.151475 0.613118 -6.560460 0.476287 -83.717481 -24.911264 14.106758 2.026688 -22.066055 -1.197719 0.112098 -2.397242 0.384047 14.962217 16.757610 5.102145 55.246955 9.351559 10.797709 -4.987701 68.564777 -0.461600 0.000000 0.000000 -0.000000 -3.069231 14.639299 -8.713109 -1.093964 -32.005068 -10.290148 0.000000 -0.000000 -0.000000 -4.929878 -49.339073 -7.779892 -10.772697 -3.624811 18.635735 
3.844416 0.548527 -4.656052 175.387350 8.799964 -177.875961 -0.000000 -0.000000 0.000000 -4.708865 -0.080585 4.976885 -0.066737 -1.579612 1.653918 0.000000 0.000000 0.000000 0.734589 -1.782839 2.074197 1.054233 -25.234173 -5.024158 -0.252885 -1.372628 -0.160966 0.577783 -6.910043 0.661404 -83.460059 -25.019927 14.062593 2.088082 -23.535948 -1.268006 0.097271 -2.343651 0.320110 14.863959 17.123036 5.130207 55.186727 9.373821 10.596351 -5.159822 69.239158 -0.611365 0.000000 0.000000 -0.000000 -3.120280 14.422146 -9.206651 -1.354100 -31.730638 -9.411784 0.000000 -0.000000 -0.000000 -4.930033 -49.830494 -7.577051 -10.357388 -2.279446 18.329047 
3.947147 0.581848 -4.743991 175.089648 8.442375 -177.798222 -0.000000 -0.000000 0.000000 -5.030899 -0.037356 5.139539 -0.116736 -1.528892 1.604946 0.000000 0.000000 0.000000 0.700232 -1.741869 1.996825 0.713875 -24.073988 -5.777828 -0.277501 -1.309899 -0.168321 0.527540 -7.217931 0.837885 -83.157720 -25.184619 13.992883 2.193338 -25.008265 -1.346144 0.078663 -2.294681 0.255579 14.825146 17.513644 5.156923 55.142033 9.366973 10.261070 -5.417485 70.227642 -0.843495 0.000000 0.000000 -0.000000 -3.182620 14.195217 -9.688175 -1.643258 -31.576064 -8.466120 0.000000 -0.000000 -0.000000 -5.015644 -50.602987 -7.266849 -9.718976 -0.858096 17.895219 
4.060907 0.615118 -4.830906 174.791611 7.744615 -177.722462 -0.000000 -0.000000 0.000000 -5.408123 -0.044390 5.344188 -0.177252 -1.485377 1.574958 0.000000 0.000000 0.000000 0.660759 -1.703966 1.914964 0.096077 -22.974104 -6.370723 -0.310660 -1.251772 -0.174641 0.552421 -7.312457 0.860194 -82.851322 -25.363635 13.889538 2.347376 -27.215286 -1.420971 0.049642 -2.248164 0.191867 14.806318 17.891013 5.186968 55.100065 9.321090 9.844906 -5.838806 71.598976 -1.249288 0.000000 0.000000 -0.000000 -3.273707 14.014496 -10.096565 -1.953876 -31.648509 -7.561211 0.000000 -0.000000 -0.000000 -5.138215 -51.436315 -7.028921 -8.892678 0.350761 17.519512 
4.184924 0.651316 -4.918367 174.507027 6.802013 -177.644565 -0.000000 -0.000000 0.000000 -5.850526 -0.098325 5.602017 -0.256482 -1.461520 1.565304 0.000000 0.000000 0.000000 0.611995 -1.672114 1.837714 -0.466845 -21.775080 -7.071838 -0.352338 -1.197625 -0.180696 0.579550 -7.410181 0.880082 -82.533663 -25.538621 13.755007 2.550206 -29.656233 -1.505252 0.006479 -2.200498 0.130097 14.772547 18.238721 5.242861 55.097764 9.224386 9.454301 -6.482917 73.374614 -1.886779 0.000000 0.000000 -0.000000 -3.385420 13.894495 -10.420501 -2.265690 -31.870636 -6.729327 0.000000 -0.000000 -0.000000 -5.286295 -52.184017 -6.817138 -7.951496 1.383418 17.127564 
4.319908 0.689856 -5.006720 174.275736 5.843820 -177.560433 -0.000000 -0.000000 0.000000 -6.329096 -0.159648 5.853800 -0.353958 -1.445043 1.545455 0.000000 0.000000 0.000000 0.550662 -1.640569 1.770113 -0.454475 -20.352450 -8.188670 -0.399425 -1.145407 -0.185781 0.604884 -7.492433 0.899499 -82.182689 -25.697612 13.677835 2.771881 -31.910571 -1.587217 -0.049008 -2.152793 0.065335 14.710974 18.543380 5.326917 55.139654 9.074910 9.142134 -7.400757 75.395503 -2.804777 0.000000 0.000000 -0.000000 -3.513161 13.895095 -10.692585 -2.573316 -32.182378 -5.962816 0.000000 -0.000000 -0.000000 -5.432002 -52.962190 -6.640183 -6.847426 2.400614 16.748104 
4.469422 0.730412 -5.095570 174.086875 5.016131 -177.493010 -0.000000 -0.000000 0.000000 -6.826611 -0.204145 6.128528 -0.458543 -1.433392 1.509430 0.000000 0.000000 0.000000 0.479206 -1.616932 1.690973 -0.394711 -18.799815 -9.392910 -0.451591 -1.092919 -0.186008 0.609110 -7.528955 0.911405 -81.786174 -25.844118 13.621388 3.006563 -33.970022 -1.670654 -0.113308 -2.106865 0.001204 14.636091 18.823081 5.444500 55.223858 8.931967 8.932999 -8.731270 77.526431 -4.141843 0.000000 0.000000 -0.000000 -3.637254 13.991344 -10.951284 -2.877314 -32.492867 -5.204459 0.000000 -0.000000 -0.000000 -5.549460 -53.713819 -6.560667 -5.602330 3.473245 16.486398 
4.633009 0.773318 -5.186697 173.933293 4.252202 -177.457146 -0.000000 -0.000000 0.000000 -7.280515 -0.220265 6.345280 -0.565868 -1.436447 1.478263 0.000000 0.000000 0.000000 0.396836 -1.608434 1.642281 -0.331584 -17.065454 -10.523224 -0.506748 -1.074473 -0.168306 0.599586 -7.493157 0.912451 -81.345992 -25.959869 13.598657 3.240654 -35.781080 -1.752817 -0.180574 -2.074234 -0.040277 14.566034 19.075264 5.588391 55.333609 8.862447 8.693368 -10.690034 79.736540 -6.112673 0.000000 0.000000 -0.000000 -3.781054 14.128157 -11.134115 -3.139462 -32.785425 -4.570084 0.000000 -0.000000 -0.000000 -5.640580 -54.296193 -6.582346 -5.083540 4.069958 16.307372 
4.809688 0.820997 -5.282732 173.770589 3.611095 -177.456628 -0.000000 -0.000000 0.000000 -7.676804 -0.322356 6.570626 -0.663793 -1.454001 1.475860 0.000000 0.000000 0.000000 0.304787 -1.619222 1.630536 -0.269863 -15.264242 -11.454085 -0.561025 -1.069474 -0.135595 0.566732 -7.372062 0.901495 -80.880584 -26.029507 13.585516 3.449364 -37.310619 -1.835351 -0.246670 -2.066085 -0.048010 14.517168 19.276797 5.727676 55.461468 8.898932 8.395499 -13.824128 81.992925 -9.269318 0.000000 0.000000 -0.000000 -3.896657 14.342578 -11.205292 -3.407852 -32.960061 -4.061806 0.000000 -0.000000 -0.000000 -5.678888 -54.465397 -6.717711 -5.182383 4.151637 16.109771 
